HIERARCHY
ROOT Hips
{
  OFFSET 0 89.5177 0.535
  CHANNELS 6 Xposition Yposition Zposition Zrotation Xrotation Yrotation
  JOINT Spine
  {
    OFFSET 12.0259 -0.162855 1.69034e-005
    CHANNELS 3 Zrotation Xrotation Yrotation
    JOINT Spine1
    {
      OFFSET 15.3169 -0.0121922 0
      CHANNELS 3 Zrotation Xrotation Yrotation
      JOINT Spine2
      {
        OFFSET 15.3176 -0.0121908 0
        CHANNELS 3 Zrotation Xrotation Yrotation
        JOINT Neck
        {
          OFFSET 19.9142 1.56338 0
          CHANNELS 3 Zrotation Xrotation Yrotation
          JOINT Head
          {
            OFFSET 6.92651 0 0
            CHANNELS 3 Zrotation Xrotation Yrotation
            End Site
            {
              OFFSET 20.7666 0 0
            }
          }
          JOINT LeftShoulder
          {
            OFFSET -6.20654 0.708824 7.28219
            CHANNELS 3 Zrotation Xrotation Yrotation
            JOINT LeftArm
            {
              OFFSET 14.108 0 -1.52588e-005
              CHANNELS 3 Zrotation Xrotation Yrotation
              JOINT LeftForeArm
              {
                OFFSET 28.5802 0 0
                CHANNELS 3 Zrotation Xrotation Yrotation
                JOINT LeftHand
                {
                  OFFSET 27.092 0 0
                  CHANNELS 3 Zrotation Xrotation Yrotation
                  End Site
                  {
                    OFFSET 9.55928 -0.186424 0.145352
                  }
                }
              }
            }
          }
          JOINT RightShoulder
          {
            OFFSET -6.20654 0.708866 -7.28218
            CHANNELS 3 Zrotation Xrotation Yrotation
            JOINT RightArm
            {
              OFFSET 14.108 0 1.52588e-005
              CHANNELS 3 Zrotation Xrotation Yrotation
              JOINT RightForeArm
              {
                OFFSET 28.5802 0 0
                CHANNELS 3 Zrotation Xrotation Yrotation
                JOINT RightHand
                {
                  OFFSET 27.092 0 0
                  CHANNELS 3 Zrotation Xrotation Yrotation
                  End Site
                  {
                    OFFSET 9.55929 -0.186417 -0.145354
                  }
                }
              }
            }
          }
        }
      }
    }
  }
  JOINT LeftUpLeg
  {
    OFFSET 0.005 -0.535 8.837
    CHANNELS 3 Zrotation Xrotation Yrotation
    JOINT LeftLeg
    {
      OFFSET 39.9035 0 0
      CHANNELS 3 Zrotation Xrotation Yrotation
      JOINT LeftFoot
      {
        OFFSET 39.6689 0 0
        CHANNELS 3 Zrotation Xrotation Yrotation
        JOINT LeftToe
        {
          OFFSET 10.1624 13.6296 0
          CHANNELS 3 Zrotation Xrotation Yrotation
          End Site
          {
            OFFSET 8.38147 0 0
          }
        }
      }
    }
  }
  JOINT RightUpLeg
  {
    OFFSET 0.005 -0.535 -8.837
    CHANNELS 3 Zrotation Xrotation Yrotation
    JOINT RightLeg
    {
      OFFSET 39.9035 0 0
      CHANNELS 3 Zrotation Xrotation Yrotation
      JOINT RightFoot
      {
        OFFSET 39.6689 0 0
        CHANNELS 3 Zrotation Xrotation Yrotation
        JOINT RightToe
        {
          OFFSET 10.1624 13.6296 0
          CHANNELS 3 Zrotation Xrotation Yrotation
          End Site
          {
            OFFSET 8.38147 0 0
          }
        }
      }
    }
  }
}
MOTION
Frames:	15
Frame Time:	0.0333333
535.037 84.888 -168.686 158.34 -82.2569 67.993 -1.56357 -0.201154 -0.727953 -3.12959 -0.381891 -1.46095 -3.12959 -0.381891 -1.46096 -8.30738e-012 -9.0191e-006 -5.27751e-005 12.2365 0.429413 -3.80237 179.696 -10.4187 -91.6784 -27.4604 -50.8244 -5.17578 -1.08286e-005 -6.36111e-015 -0 -41.4616 -24.4783 -28.617 178.823 9.06122 97.4328 89.3727 72.0657 -104.101 -9.35585e-006 -1.98785e-015 -3.18055e-015 -32.7074 20.5316 25.0434 -19.2005 -0.538919 178.053 -37.1878 -3.97569e-016 -1.19271e-015 25.85 4.61917 1.88849 90 0 -3.97569e-016 -18.7918 -3.25613 -175.084 -35.5156 0 -1.3418e-015 23.5341 -3.67886 -5.31552 90 2.60667e-021 7.95139e-016 
535.116 84.8992 -168.858 159.126 -82.1801 68.6955 -1.55109 -0.198853 -0.738581 -3.10464 -0.377163 -1.4821 -3.10464 -0.377162 -1.48211 -8.30758e-012 -9.0191e-006 -5.27751e-005 12.2873 0.182022 -3.51462 179.671 -10.3608 -91.8279 -26.9107 -50.6463 -4.74401 -1.07462e-005 -3.18055e-015 -0 -40.7159 -24.8949 -28.2464 178.868 8.49026 97.6219 82.057 71.013 -95.8104 -1.19424 9.93923e-017 4.77083e-015 -26.6806 18.3521 20.7281 -19.1407 -0.510817 178.222 -37.1023 1.98785e-016 -3.97569e-016 25.9086 4.66333 1.81823 90 1.86361e-017 -0 -18.6816 -3.10707 -174.896 -35.2901 -2.98177e-016 -1.2424e-015 23.5251 -3.61185 -5.37738 90 -2.65406e-021 7.95139e-016 
535.202 84.9413 -169.059 160.218 -81.9839 69.6762 -1.57998 -0.195618 -0.732326 -3.16235 -0.370495 -1.46936 -3.16235 -0.370495 -1.46937 -8.30758e-012 -9.0191e-006 -5.27751e-005 12.3641 0.011023 -3.44073 179.652 -10.328 -91.9409 -26.9228 -51.4766 -4.91191 -1.06622e-005 1.27222e-014 -1.59028e-015 -40.7222 -24.653 -28.2216 178.882 8.42428 97.5903 81.767 70.932 -95.4488 -1.11596 -2.48481e-016 -1.59028e-015 -26.273 18.6089 20.754 -19.0972 -0.613633 178.388 -36.8253 0 -5.96354e-016 25.7939 4.58677 1.76075 90 -6.21202e-018 3.97569e-016 -18.5692 -3.20156 -174.733 -34.869 3.97569e-016 7.45443e-016 23.4326 -3.72965 -5.4347 90 -1.95026e-020 -1.59028e-015 
535.291 84.9812 -169.259 161.996 -81.7275 71.4168 -1.63981 -0.176763 -0.726071 -3.28175 -0.332201 -1.45672 -3.28175 -0.332201 -1.45673 -8.30748e-012 -9.0191e-006 -5.27751e-005 12.5106 -0.0135333 -3.53341 179.619 -10.4643 -92.0963 -27.1742 -51.6326 -5.28581 -1.05766e-005 1.27222e-014 6.36111e-015 -40.8601 -24.3458 -28.0626 178.877 8.44357 97.6052 80.8466 71.1057 -94.5547 -1.1651 6.21202e-018 -2.38542e-015 -26.1299 18.8455 20.645 -19.1033 -0.730805 178.475 -36.4541 -3.97569e-016 1.98785e-016 25.5319 4.40335 1.71688 90 -3.10601e-018 -7.95139e-016 -18.5764 -3.29125 -174.647 -34.5039 2.98177e-016 -7.45443e-016 23.3581 -3.95375 -5.48659 90 1.50713e-020 -0 
535.381 85.0149 -169.418 164.12 -81.5302 73.5527 -1.66821 -0.138634 -0.732126 -3.33806 -0.255424 -1.46779 -3.33806 -0.255424 -1.4678 -8.30753e-012 -9.0191e-006 -5.27751e-005 12.3913 0.0317373 -3.65803 179.557 -10.5027 -92.4285 -27.3189 -52.2328 -5.74917 -1.04892e-005 0 -1.59028e-015 -40.9539 -23.9823 -27.9812 178.84 8.49105 97.8062 82.0081 71.0369 -95.6182 -1.47167 9.93923e-017 -1.59028e-015 -26.1782 18.5659 20.525 -19.0886 -0.76705 178.528 -36.0835 3.97569e-016 -0 25.2278 4.19003 1.68228 90 6.21202e-018 3.97569e-016 -18.6398 -3.21637 -174.574 -34.2343 -7.45443e-017 4.34842e-016 23.2849 -4.11676 -5.53899 90 -2.08533e-020 7.95139e-016 
535.433 85.0279 -169.561 166.694 -81.3917 76.2654 -1.65885 -0.0789632 -0.766661 -3.31861 -0.135231 -1.5351 -3.31861 -0.135231 -1.53511 -8.30751e-012 -9.0191e-006 -5.27751e-005 11.9284 0.190078 -3.82036 179.502 -10.6104 -92.7068 -27.9171 -52.8042 -6.67049 -1.04003e-005 -3.18055e-015 -1.59028e-015 -41.1767 -23.5247 -27.9815 178.801 8.53118 98.0306 84.1064 71.0001 -97.5455 -1.65933 0 -7.95139e-016 -26.3277 18.2025 20.2284 -19.0064 -0.897443 178.426 -35.7124 0 -2.98177e-016 24.9626 3.84314 1.66466 90 2.09481e-020 -0 -18.7973 -2.91561 -174.596 -34.1848 -4.96962e-017 -5.34234e-016 23.3097 -4.13011 -5.57729 90 1.23224e-021 7.95139e-016 
535.485 85.0029 -169.67 168.184 -81.1744 77.939 -1.65918 -0.0608049 -0.80538 -3.31905 -0.0977982 -1.61199 -3.31905 -0.0977979 -1.612 -8.30751e-012 -9.0191e-006 -5.27751e-005 11.5099 0.35539 -3.9674 179.443 -10.8486 -92.9584 -28.7703 -53.1939 -7.72027 -1.03097e-005 6.36111e-015 1.59028e-015 -41.4484 -23.2491 -28.0432 178.745 8.55187 98.3816 86.1377 70.9173 -99.4688 -1.68835 -5.96354e-016 -7.95139e-016 -26.604 17.6504 20.1921 -19.1246 -0.6934 178.329 -35.6205 0 4.96962e-017 25.0189 3.8548 1.62676 90 -6.54037e-021 -0 -19.1076 -2.70264 -174.688 -34.3646 5.71506e-016 7.33019e-016 23.4427 -4.14078 -5.62338 90 -4.85492e-021 7.95139e-016 
535.525 84.9907 -169.805 168.398 -81.0732 78.173 -1.61559 -0.081513 -0.807256 -3.23217 -0.139765 -1.6163 -3.23217 -0.139764 -1.61631 -8.30758e-012 -9.0191e-006 -5.27751e-005 11.1574 0.605363 -4.22008 179.373 -11.0713 -93.2619 -29.4702 -54.1591 -8.54577 -1.02175e-005 -9.54166e-015 -0 -41.5972 -23.1314 -28.2795 178.704 8.55471 98.6453 86.6441 70.9426 -99.9453 -1.83333 3.97569e-016 -1.59028e-015 -26.6495 17.4525 20.0792 -19.1077 -0.54925 178.381 -35.5831 1.98785e-016 4.96962e-016 25.1051 3.94223 1.58286 90 5.26073e-021 -3.97569e-016 -19.1191 -2.6179 -174.648 -34.3454 1.73937e-016 5.8393e-016 23.5217 -4.07056 -5.66425 90 -7.77261e-021 -2.38542e-015 
535.544 85.0315 -169.974 167.889 -80.872 77.5982 -1.59438 -0.104883 -0.79903 -3.19007 -0.187022 -1.60048 -3.19007 -0.187021 -1.60049 -8.30748e-012 -9.0191e-006 -5.27751e-005 10.9989 0.746853 -4.36765 179.326 -11.1472 -93.4787 -30.005 -54.5116 -9.16225 -1.01237e-005 -9.54166e-015 -0 -41.6752 -23.0219 -28.331 178.655 8.64437 98.8813 86.6116 70.8925 -99.9254 -1.86321 -1.98785e-016 -0 -26.8273 17.4034 20.1655 -19.0621 -0.774392 178.413 -35.3377 0 -4.96962e-017 25.0877 3.88765 1.56822 90 -4.17067e-021 -0 -19.0036 -2.60696 -174.574 -33.9949 3.47873e-016 -1.14301e-015 23.4736 -3.98015 -5.67389 90 2.55927e-021 -1.59028e-015 
535.571 85.0952 -170.155 167.628 -80.5514 77.2098 -1.62445 -0.13024 -0.780712 -3.25052 -0.237822 -1.56462 -3.25052 -0.237822 -1.56463 -8.30708e-012 -9.0191e-006 -5.27751e-005 11.1594 0.889912 -4.43517 179.255 -11.4309 -93.7542 -30.4497 -54.382 -9.28674 -1.00283e-005 0 4.77083e-015 -41.5823 -23.062 -28.2844 178.614 8.68185 99.1084 86.5733 70.771 -99.8861 -1.8453 -9.93923e-017 -1.59028e-015 -26.8896 17.221 20.1741 -19.0847 -1.25019 178.455 -35.0064 0 2.48481e-016 25.0431 3.64245 1.5606 90 -6.72994e-021 7.95139e-016 -18.8887 -2.8512 -174.479 -33.4513 -8.19987e-016 -2.11209e-016 23.3346 -4.09077 -5.68594 90 4.45503e-021 -0 
535.586 85.1662 -170.368 168.293 -80.3844 77.7289 -1.65137 -0.114167 -0.750312 -3.3041 -0.206194 -1.50342 -3.3041 -0.206194 -1.50343 -8.30728e-012 -9.0191e-006 -5.27751e-005 11.5646 0.926535 -4.48158 179.216 -11.6489 -93.8754 -30.828 -54.0231 -9.38783 -9.93138e-006 -3.18055e-015 -1.59028e-015 -41.6315 -23.3577 -28.4837 178.591 8.71385 99.2191 86.5004 70.8087 -99.7811 -1.83888 -9.93923e-017 7.95139e-016 -26.7482 17.1596 20.0139 -18.9147 -1.51509 178.573 -34.6244 4.96962e-017 2.48481e-016 25.0197 3.43936 1.55703 90 -2.09718e-020 3.97569e-016 -18.6284 -2.75056 -174.291 -32.8442 -5.2181e-016 1.14301e-015 23.1733 -4.03911 -5.69282 90 -2.17064e-020 -0 
535.597 85.2344 -170.568 169.363 -80.2479 78.7543 -1.67708 -0.0816684 -0.738903 -3.35508 -0.141209 -1.47969 -3.35508 -0.141208 -1.4797 -8.30728e-012 -9.0191e-006 -5.27751e-005 11.9599 1.02908 -4.51599 179.18 -11.7374 -94.0261 -30.8963 -54.0167 -9.33343 -9.83286e-006 -9.54166e-015 -1.59028e-015 -41.697 -23.3334 -28.5467 178.557 8.73434 99.4216 87.0374 70.6269 -100.292 -1.93092 0 -0 -26.725 17.1756 20.0758 -18.716 -1.59017 178.63 -34.1898 -3.72721e-017 3.35449e-016 24.9543 3.34111 1.55345 90 -2.40287e-020 -3.97569e-016 -18.4226 -2.6753 -174.208 -32.3326 -8.44835e-016 8.82107e-016 23.0326 -4.06487 -5.69836 90 8.43613e-021 7.95139e-016 
535.586 85.3138 -170.762 170.189 -80.166 79.5433 -1.67706 -0.0647676 -0.744578 -3.35482 -0.10725 -1.49054 -3.35482 -0.10725 -1.49055 -8.30768e-012 -9.0191e-006 -5.27751e-005 12.1491 1.07411 -4.50435 179.15 -11.8367 -94.1354 -31.2008 -54.169 -9.62167 -9.73278e-006 -1.27222e-014 1.59028e-015 -41.6322 -22.9696 -28.2278 178.541 8.72564 99.5286 87.5606 70.4538 -100.801 -1.95301 9.93923e-017 -1.59028e-015 -26.7113 16.9619 19.9979 -18.4429 -1.56575 178.685 -33.7 6.83322e-017 -1.36664e-016 24.8435 3.28525 1.55936 90 -2.63036e-020 -0 -18.1313 -2.63947 -174.168 -31.7792 3.41661e-017 9.9237e-016 22.8709 -4.13598 -5.6756 90 3.10904e-020 -2.38542e-015 
535.573 85.3916 -170.911 170.628 -80.087 79.9595 -1.67053 -0.0608749 -0.754818 -3.34171 -0.099253 -1.5109 -3.34171 -0.0992527 -1.51091 -8.30808e-012 -9.0191e-006 -5.27751e-005 12.1949 1.05322 -4.48677 179.136 -11.9219 -94.176 -31.3304 -53.8902 -9.82503 -9.63117e-006 -6.36111e-015 3.18055e-015 -41.7167 -23.0642 -28.3785 178.544 8.69823 99.5415 86.8748 70.5028 -100.155 -1.82889 0 -0 -26.8473 17.0771 20.1655 -18.2154 -1.57753 178.709 -33.2386 -7.76503e-017 1.56854e-016 24.7001 3.24387 1.56984 90 1.47395e-020 -3.97569e-016 -17.8767 -2.7411 -174.177 -31.2716 -7.45443e-017 1.36664e-016 22.6993 -4.25651 -5.64515 90 2.57231e-020 -7.95139e-016 
535.536 85.4692 -171.073 170.945 -80.1304 80.2578 -1.64365 -0.0537003 -0.748057 -3.28786 -0.0854559 -1.49716 -3.28786 -0.0854556 -1.49717 -8.30748e-012 -9.0191e-006 -5.27751e-005 12.2059 0.964063 -4.66676 179.14 -11.9469 -94.1442 -31.4836 -53.7529 -10.0782 -9.52802e-006 6.36111e-015 -0 -41.924 -23.114 -28.5701 178.546 8.61946 99.6125 86.2298 70.5526 -99.4544 -1.86418 0 7.95139e-016 -26.7045 17.0465 20.0623 -17.8479 -1.60954 178.707 -32.763 6.21202e-017 9.31803e-017 24.5572 3.17073 1.60148 90 -1.81045e-020 -0 -17.4962 -2.61268 -174.165 -30.7672 2.48481e-016 -3.10601e-015 22.5492 -4.21919 -5.60409 90 -1.22276e-020 -0 
